<svg width="64" height="64" viewBox="0 0 64 64" fill="none" xmlns="http://www.w3.org/2000/svg">
  <!-- Background Circle -->
  <circle cx="32" cy="32" r="32" fill="#074e94"/>

  <!-- Chat Bubble -->
  <path d="M16 24C16 19.5817 19.5817 16 24 16H40C44.4183 16 48 19.5817 48 24V36C48 40.4183 44.4183 44 40 44H32L24 52V44H24C19.5817 44 16 40.4183 16 36V24Z" fill="white"/>

  <!-- Bot Icon -->
  <circle cx="32" cy="30" r="4" fill="#91c754"/>
  <path d="M28 30C28 28.8954 28.8954 28 30 28H34C35.1046 28 36 28.8954 36 30C36 31.1046 35.1046 32 34 32H30C28.8954 32 28 31.1046 28 30Z" fill="white"/>

  <!-- Circuit Lines -->
  <path d="M20 20L24 20" stroke="#91c754" stroke-width="2" stroke-linecap="round"/>
  <path d="M44 20L40 20" stroke="#91c754" stroke-width="2" stroke-linecap="round"/>
  <path d="M20 40L24 40" stroke="#91c754" stroke-width="2" stroke-linecap="round"/>
  <path d="M44 40L40 40" stroke="#91c754" stroke-width="2" stroke-linecap="round"/>

  <!-- Dots -->
  <circle cx="22" cy="26" r="1" fill="#91c754"/>
  <circle cx="42" cy="26" r="1" fill="#91c754"/>
  <circle cx="22" cy="38" r="1" fill="#91c754"/>
  <circle cx="42" cy="38" r="1" fill="#91c754"/>

  <!-- Sparkle Effect -->
  <path d="M32 8L33.5 10.5L36 12L33.5 13.5L32 16L30.5 13.5L28 12L30.5 10.5L32 8Z" fill="#91c754"/>
  <path d="M56 32L57.5 34.5L60 36L57.5 37.5L56 40L54.5 37.5L52 36L54.5 34.5L56 32Z" fill="#91c754"/>
  <path d="M8 32L9.5 34.5L12 36L9.5 37.5L8 40L6.5 37.5L4 36L6.5 34.5L8 32Z" fill="#91c754"/>
</svg>
